# xmcd CD database file
#
# Track frame offsets:
#	150
#	27986
#	55308
#	70695
#	95010
#	116847
#	146261
#	165205
#	206667
#	235452
#	263993
#
# Disc length: 4626 seconds
#
# Revision: 2
# Processed by: cddbd v1.5.2PL0 Copyright (c) Steve Scherf et al.
# Submitted via: CDex 1.51
#
DISCID=9a12100b
DTITLE=Domenico Cimarosa - Il Matrimonio Segreto - Acte I  (Gabriele Bellini, Orchestra of Eastern Netherlands)
DYEAR=1900
DGENRE=Classique
TTITLE0=Acte I - Sinfonia
TTITLE1=Acte I - Introduzione - Cara non dubitar ...
TTITLE2=Acte I - Io ti lascio perchè uniti ...
TTITLE3=Acte I - Aria - Udite, tutti udite ...
TTITLE4=Acte I - Terzetto - Le faccio un inchino ...
TTITLE5=Acte I - E vero che in casa
TTITLE6=Acte I - Cavatina - Senza, senza ceremonie ...
TTITLE7=Acte I - Quartetto - Sento in petto un freddo gelo ...
TTITLE8=Acte I - Duetto - Signor, deh, concedete ...
TTITLE9=Acte I - Aria - Perdonate, Signor mio ...
TTITLE10=Acte I - Finale - Tu mi dici che del Conte ...
EXTD=
EXTT0=
EXTT1=
EXTT2=
EXTT3=
EXTT4=
EXTT5=
EXTT6=
EXTT7=
EXTT8=
EXTT9=
EXTT10=
PLAYORDER=
